<svg width="347" height="421" viewBox="0 0 347 421" fill="none" xmlns="http://www.w3.org/2000/svg">
<path d="M169.81 0.0234475C320.608 3.62194 399.933 279.271 305.557 368.475C237.346 447.187 120.504 429.663 43.1165 359.425C-48.1899 276.555 23.7109 26.162 91.3152 95.4987C106.446 50.14 116.144 -1.25694 169.81 0.0234475Z" fill="white"/>
<path d="M194.748 44.7777C315.237 112.985 397.653 418.711 175.625 407.946C22.9996 400.546 3.22589 204.604 73.5364 133.593C79.6653 127.403 102.092 154.686 108.504 157.21C106.439 127.965 135.854 8.42035 194.748 44.7777Z" fill="white"/>
<path d="M151.137 159.276C151.202 111.212 206.8 97.8255 239.333 133.205C284.86 182.716 318.747 259.978 269.084 364.785C265.722 371.88 261.455 378.819 255.137 383.48C217.157 411.501 151.692 378.584 113.548 343.965C80.3326 313.818 72.6743 272.165 75.868 233.363C78.7989 197.755 114.157 192.561 142.943 213.727C148.671 217.938 154.468 212.496 153.852 205.413C152.553 190.493 151.116 174.818 151.137 159.276Z" fill="white"/>
<path d="M266.448 288.569C281.65 517.663 41.7108 269.398 132.172 247.191C162.828 239.665 181.698 284.256 187.332 282.525C191.865 281.133 257.16 148.603 266.448 288.569Z" fill="white"/>
<path d="M210.273 326.993C210.273 326.993 173.235 299.701 164.401 318.546C153.894 340.961 211.758 377.456 227.76 370.855C242.685 364.698 265.967 284.627 235.147 291.929C216.519 296.342 210.273 326.993 210.273 326.993Z" fill="white"/>
</svg>
