<svg width="1143" height="490" viewBox="0 0 1143 490" fill="none" xmlns="http://www.w3.org/2000/svg">
<g clip-path="url(#clip0_12_563)">
<path d="M695.978 100.573C709.924 100.573 721.229 111.878 721.229 125.823V199.808H746.48C760.425 199.808 771.73 211.113 771.73 225.058C771.73 239.004 760.425 250.309 746.48 250.309H721.229V404.734C721.229 418.68 709.924 429.985 695.978 429.985C682.033 429.985 670.727 418.68 670.727 404.734V125.823C670.727 111.878 682.033 100.573 695.978 100.573Z" fill="#4F1F0A"/>
<path d="M618.087 119.011C632.033 119.011 643.338 130.316 643.338 144.262C643.338 158.207 632.033 169.512 618.087 169.513H500.25V330.04H623.647C637.592 330.04 648.898 341.345 648.898 355.29C648.898 369.236 637.592 380.541 623.647 380.541C574.098 380.541 524.549 380.541 475 380.541C461.054 380.541 449.749 369.236 449.749 355.29V144.262C449.749 130.316 461.054 119.011 475 119.011H618.087Z" fill="#4F1F0A"/>
<path d="M1057.04 100.573C1070.99 100.573 1082.29 111.878 1082.29 125.823V277.328C1082.29 291.274 1070.99 302.579 1057.04 302.579C1043.09 302.579 1031.79 291.273 1031.79 277.328V230.309H1006.54C992.593 230.309 981.287 219.004 981.287 205.058C981.287 191.113 992.593 179.808 1006.54 179.808H1031.79V125.823C1031.79 111.878 1043.09 100.573 1057.04 100.573Z" fill="#4F1F0A"/>
<path d="M957.626 119.011C971.572 119.011 982.877 130.316 982.877 144.262C982.877 158.207 971.572 169.513 957.626 169.513H911.333V199.685C911.334 225.37 933.064 245.668 958.278 245.986C971.922 246.332 982.877 257.501 982.877 271.229C982.877 285.174 971.572 296.48 957.626 296.48C930.492 296.301 904.408 284.98 886.083 264.882C867.606 285.146 841.243 296.482 813.887 296.471C800.243 296.125 789.288 284.956 789.288 271.228C789.288 257.283 800.593 245.978 814.539 245.978C839.764 245.805 860.832 225.045 860.832 199.685V169.513H814.539C800.593 169.513 789.288 158.207 789.288 144.262C789.288 130.316 800.593 119.011 814.539 119.011H957.626Z" fill="#4F1F0A"/>
<path fill-rule="evenodd" clip-rule="evenodd" d="M1030.95 316.356C1059.3 316.357 1082.29 339.344 1082.29 367.7V378.642C1082.29 406.998 1059.3 429.985 1030.95 429.985H855.876C827.52 429.985 804.532 406.998 804.532 378.642V367.7C804.532 339.344 827.52 316.357 855.876 316.356H1030.95ZM880.285 356.337C870.988 356.337 863.451 363.874 863.451 373.171C863.451 382.468 870.988 390.004 880.285 390.004H1006.54C1015.84 390.004 1023.37 382.468 1023.37 373.171C1023.37 363.874 1015.84 356.337 1006.54 356.337H880.285Z" fill="#4F1F0A"/>
<path d="M220.172 66.8162C340.661 135.023 492.909 429.985 201.048 429.985C48.2439 429.985 28.6493 226.642 98.9598 155.631C105.089 149.441 127.516 176.725 133.928 179.249C131.863 150.003 161.277 30.4588 220.172 66.8162Z" fill="#960100"/>
<path d="M291.871 310.607C307.074 539.701 67.1343 291.436 157.595 269.229C188.251 261.704 207.121 306.294 212.756 304.563C217.288 303.171 282.583 170.642 291.871 310.607Z" fill="#FEB700"/>
</g>
<defs>
<clipPath id="clip0_12_563">
<rect width="1022.29" height="369.985" fill="white" transform="translate(60 60)"/>
</clipPath>
</defs>
</svg>
